{
  "accessors": [
    {
      "bufferView": 2,
      "componentType": 5126,
      "count": 1532,
      "max": [
        74.43611907958984,
        244.8616180419922,
        74.43610382080078
      ],
      "min": [
        -74.43608093261719,
        -44.25448989868164,
        -74.43611907958984
      ],
      "type": "VEC3"
    },
    {
      "bufferView": 2,
      "byteOffset": 18384,
      "componentType": 5126,
      "count": 1532,
      "max": [
        1.0,
        1.0,
        1.0
      ],
      "min": [
        -1.0,
        -1.0,
        -1.0
      ],
      "type": "VEC3"
    },
    {
      "bufferView": 3,
      "componentType": 5126,
      "count": 1532,
      "max": [
        0.9999999403953552,
        1.0,
        1.0,
        1.0
      ],
      "min": [
        -1.0,
        -1.0,
        -1.0,
        1.0
      ],
      "type": "VEC4"
    },
    {
      "bufferView": 1,
      "componentType": 5126,
      "count": 1532,
      "max": [
        1.0,
        0.9953500032424927
      ],
      "min": [
        0.0,
        0.0
      ],
      "type": "VEC2"
    },
    {
      "bufferView": 1,
      "byteOffset": 12256,
      "componentType": 5126,
      "count": 1532,
      "max": [
        1.0,
        0.9953500032424927
      ],
      "min": [
        0.0,
        0.0
      ],
      "type": "VEC2"
    },
    {
      "bufferView": 1,
      "byteOffset": 24512,
      "componentType": 5126,
      "count": 1532,
      "max": [
        1.0,
        0.9953500032424927
      ],
      "min": [
        0.0,
        0.0
      ],
      "type": "VEC2"
    },
    {
      "bufferView": 1,
      "byteOffset": 36768,
      "componentType": 5126,
      "count": 1532,
      "max": [
        1.0,
        0.9953500032424927
      ],
      "min": [
        0.0,
        0.0
      ],
      "type": "VEC2"
    },
    {
      "bufferView": 1,
      "byteOffset": 49024,
      "componentType": 5126,
      "count": 1532,
      "max": [
        1.0,
        0.9953500032424927
      ],
      "min": [
        0.0,
        0.0
      ],
      "type": "VEC2"
    },
    {
      "bufferView": 1,
      "byteOffset": 61280,
      "componentType": 5126,
      "count": 1532,
      "max": [
        1.0,
        0.9953500032424927
      ],
      "min": [
        0.0,
        0.0
      ],
      "type": "VEC2"
    },
    {
      "bufferView": 0,
      "componentType": 5125,
      "count": 4464,
      "type": "SCALAR"
    },
    {
      "bufferView": 2,
      "byteOffset": 36768,
      "componentType": 5126,
      "count": 8,
      "max": [
        29.73929214477539,
        -38.591121673583984,
        29.739273071289063
      ],
      "min": [
        -29.739273071289063,
        -514.597900390625,
        -29.73929214477539
      ],
      "type": "VEC3"
    },
    {
      "bufferView": 2,
      "byteOffset": 36864,
      "componentType": 5126,
      "count": 8,
      "max": [
        0.5877850651741028,
        0.0,
        0.8090171217918396
      ],
      "min": [
        -0.8090171217918396,
        0.0,
        0.5877850651741028
      ],
      "type": "VEC3"
    },
    {
      "bufferView": 3,
      "byteOffset": 24512,
      "componentType": 5126,
      "count": 8,
      "max": [
        0.05487668141722679,
        -0.9976968169212341,
        0.05487670376896858,
        1.0
      ],
      "min": [
        -0.05487668514251709,
        -1.0,
        -0.0548766627907753,
        -1.0
      ],
      "type": "VEC4"
    },
    {
      "bufferView": 1,
      "byteOffset": 73536,
      "componentType": 5126,
      "count": 8,
      "max": [
        0.7057470083236694,
        1.0035090446472168
      ],
      "min": [
        0.29425299167633057,
        -0.0035089999437332153
      ],
      "type": "VEC2"
    },
    {
      "bufferView": 1,
      "byteOffset": 73600,
      "componentType": 5126,
      "count": 8,
      "max": [
        0.7057470083236694,
        1.0035090446472168
      ],
      "min": [
        0.29425299167633057,
        -0.0035089999437332153
      ],
      "type": "VEC2"
    },
    {
      "bufferView": 1,
      "byteOffset": 73664,
      "componentType": 5126,
      "count": 8,
      "max": [
        0.7057470083236694,
        1.0035090446472168
      ],
      "min": [
        0.29425299167633057,
        -0.0035089999437332153
      ],
      "type": "VEC2"
    },
    {
      "bufferView": 1,
      "byteOffset": 73728,
      "componentType": 5126,
      "count": 8,
      "max": [
        0.7057470083236694,
        1.0035090446472168
      ],
      "min": [
        0.29425299167633057,
        -0.0035089999437332153
      ],
      "type": "VEC2"
    },
    {
      "bufferView": 1,
      "byteOffset": 73792,
      "componentType": 5126,
      "count": 8,
      "max": [
        0.7057470083236694,
        1.0035090446472168
      ],
      "min": [
        0.29425299167633057,
        -0.0035089999437332153
      ],
      "type": "VEC2"
    },
    {
      "bufferView": 1,
      "byteOffset": 73856,
      "componentType": 5126,
      "count": 8,
      "max": [
        0.7057470083236694,
        1.0035090446472168
      ],
      "min": [
        0.29425299167633057,
        -0.0035089999437332153
      ],
      "type": "VEC2"
    },
    {
      "bufferView": 0,
      "byteOffset": 17856,
      "componentType": 5125,
      "count": 12,
      "type": "SCALAR"
    }
  ],
  "asset": {
    "extras": {
      "author": "Joe_Y (https://sketchfab.com/NeonSwager)",
      "license": "CC-BY-NC-4.0 (http://creativecommons.org/licenses/by-nc/4.0/)",
      "source": "https://sketchfab.com/3d-models/test-rocket-875d5e3a190b41de9dcc75c959273853",
      "title": "Test Rocket"
    },
    "generator": "Sketchfab-12.59.0",
    "version": "2.0"
  },
  "bufferViews": [
    {
      "buffer": 0,
      "byteLength": 17904,
      "name": "floatBufferViews",
      "target": 34963
    },
    {
      "buffer": 0,
      "byteLength": 73920,
      "byteOffset": 17904,
      "byteStride": 8,
      "name": "floatBufferViews",
      "target": 34962
    },
    {
      "buffer": 0,
      "byteLength": 36960,
      "byteOffset": 91824,
      "byteStride": 12,
      "name": "floatBufferViews",
      "target": 34962
    },
    {
      "buffer": 0,
      "byteLength": 24640,
      "byteOffset": 128784,
      "byteStride": 16,
      "name": "floatBufferViews",
      "target": 34962
    }
  ],
  "buffers": [
    {
      "byteLength": 153424,
      "uri": "scene.bin"
    }
  ],
  "images": [
    {
      "uri": "textures/StingrayPBS2_baseColor.png"
    },
    {
      "uri": "textures/StingrayPBS2_metallicRoughness.png"
    },
    {
      "uri": "textures/StingrayPBS2_emissive.png"
    },
    {
      "uri": "textures/StingrayPBS2_normal.png"
    },
    {
      "uri": "textures/StingrayPBS1_baseColor.png"
    },
    {
      "uri": "textures/StingrayPBS1_metallicRoughness.png"
    },
    {
      "uri": "textures/StingrayPBS1_emissive.png"
    },
    {
      "uri": "textures/StingrayPBS1_normal.png"
    }
  ],
  "materials": [
    {
      "doubleSided": true,
      "emissiveFactor": [
        0.8708079268,
        0.8708079268,
        0.8708079268
      ],
      "emissiveTexture": {
        "index": 2
      },
      "name": "StingrayPBS2",
      "normalTexture": {
        "index": 3
      },
      "occlusionTexture": {
        "index": 1
      },
      "pbrMetallicRoughness": {
        "baseColorTexture": {
          "index": 0
        },
        "metallicRoughnessTexture": {
          "index": 1
        },
        "roughnessFactor": 0.9895198171
      }
    },
    {
      "doubleSided": true,
      "emissiveFactor": [
        1.0,
        1.0,
        1.0
      ],
      "emissiveTexture": {
        "index": 6
      },
      "name": "StingrayPBS1",
      "normalTexture": {
        "index": 7
      },
      "pbrMetallicRoughness": {
        "baseColorTexture": {
          "index": 4
        },
        "metallicRoughnessTexture": {
          "index": 5
        }
      }
    }
  ],
  "meshes": [
    {
      "name": "_polySurface1_StingrayPBS2_0",
      "primitives": [
        {
          "attributes": {
            "NORMAL": 1,
            "POSITION": 0,
            "TANGENT": 2,
            "TEXCOORD_0": 3,
            "TEXCOORD_1": 4,
            "TEXCOORD_2": 5,
            "TEXCOORD_3": 6,
            "TEXCOORD_4": 7,
            "TEXCOORD_5": 8
          },
          "indices": 9,
          "material": 0,
          "mode": 4
        }
      ]
    },
    {
      "name": "_polySurface1_StingrayPBS1_0",
      "primitives": [
        {
          "attributes": {
            "NORMAL": 11,
            "POSITION": 10,
            "TANGENT": 12,
            "TEXCOORD_0": 13,
            "TEXCOORD_1": 14,
            "TEXCOORD_2": 15,
            "TEXCOORD_3": 16,
            "TEXCOORD_4": 17,
            "TEXCOORD_5": 18
          },
          "indices": 19,
          "material": 1,
          "mode": 4
        }
      ]
    }
  ],
  "nodes": [
    {
      "children": [
        1
      ],
      "matrix": [
        0.003540882607921958,
        -2.1681653705825934e-19,
        -9.203412951080191e-31,
        0.0,
        7.56029510383236e-20,
        0.001234689890140806,
        -0.0033186429020212733,
        0.0,
        2.0320826303312233e-19,
        0.0033186429020212733,
        0.001234689890140806,
        0.0,
        -103.5678482055664,
        96.20365905761717,
        63.72033691406252,
        1.0
      ],
      "name": "Sketchfab_model"
    },
    {
      "children": [
        2
      ],
      "matrix": [
        1.0,
        0.0,
        0.0,
        0.0,
        0.0,
        0.0,
        1.0,
        0.0,
        0.0,
        -1.0,
        0.0,
        0.0,
        0.0,
        0.0,
        0.0,
        1.0
      ],
      "name": "Rocket3.fbx"
    },
    {
      "children": [
        3
      ],
      "name": "RootNode"
    },
    {
      "children": [
        4,
        5
      ],
      "name": "_polySurface1"
    },
    {
      "mesh": 0,
      "name": "_polySurface1_StingrayPBS2_0"
    },
    {
      "mesh": 1,
      "name": "_polySurface1_StingrayPBS1_0"
    }
  ],
  "samplers": [
    {
      "magFilter": 9729,
      "minFilter": 9987,
      "wrapS": 10497,
      "wrapT": 10497
    }
  ],
  "scene": 0,
  "scenes": [
    {
      "name": "Sketchfab_Scene",
      "nodes": [
        0
      ]
    }
  ],
  "textures": [
    {
      "sampler": 0,
      "source": 0
    },
    {
      "sampler": 0,
      "source": 1
    },
    {
      "sampler": 0,
      "source": 2
    },
    {
      "sampler": 0,
      "source": 3
    },
    {
      "sampler": 0,
      "source": 4
    },
    {
      "sampler": 0,
      "source": 5
    },
    {
      "sampler": 0,
      "source": 6
    },
    {
      "sampler": 0,
      "source": 7
    }
  ]
}
